<?xml version="1.0" encoding="utf-8"?>
<!-- Generator: Adobe Illustrator 17.0.0, SVG Export Plug-In . SVG Version: 6.00 Build 0)  -->
<!DOCTYPE svg PUBLIC "-//W3C//DTD SVG 1.1//EN" "http://www.w3.org/Graphics/SVG/1.1/DTD/svg11.dtd">
<svg version="1.1" id="Layer_1" xmlns="http://www.w3.org/2000/svg" xmlns:xlink="http://www.w3.org/1999/xlink" x="0px" y="0px"
	 width="587.636px" height="186.996px" viewBox="0 0 587.636 186.996" enable-background="new 0 0 587.636 186.996"
	 xml:space="preserve">
<g>
	<path fill="#FFFFFF" d="M557.718,159.217c7.23-0.017,11.938,6.293,10.763,13.975c-1.653,11.993-17.961,18.537-24.007,9.764
		C537.291,175.154,546.652,158.546,557.718,159.217z M563.763,54.516c0.244-2.887,2.968-5.126,5.678-5.188
		c4.745-0.108,9.489-0.187,14.234-0.235c2.711-0.028,4.506,2.142,3.811,5.046c-5.515,28.555-11.031,57.02-16.546,85.394
		c-0.697,3.367-2.741,5.038-5.678,5.037c-3.314-0.001-6.628,0.012-9.941,0.038c-2.712,0.021-4.506-2.109-3.811-4.989
		C555.594,111.329,559.679,82.961,563.763,54.516z"/>
</g>
<g>
	<path fill="#FFFFFF" d="M29.918,27.779c-7.23,0.017-11.938-6.293-10.763-13.975C20.808,1.811,37.116-4.733,43.163,4.04
		C50.346,11.843,40.984,28.45,29.918,27.779z M23.873,132.48c-0.244,2.887-2.968,5.126-5.678,5.188
		c-4.745,0.108-9.489,0.187-14.234,0.235c-2.711,0.028-4.506-2.142-3.811-5.046c5.515-28.555,11.031-57.02,16.546-85.394
		c0.697-3.367,2.741-5.039,5.678-5.037c3.314,0.001,6.627-0.012,9.941-0.038c2.712-0.021,4.506,2.109,3.811,4.989
		C32.042,75.668,27.958,104.036,23.873,132.48z"/>
</g>
<g>
	<g>
		<path fill="#FFFFFF" d="M83.149,87.216c4.578-0.25,7.267-3.317,7.833-11.966c0.441-9.006,0.917-23.112,1.255-36.001
			c3.318-1.662,22.257-2.373,25.543,0.393c-2.66,18.16-3.797,36.041-3.915,54.224c-0.056,8.541-1.502,15.954-3.832,22.063
			c17.381,5.055,35.253,12.675,48.097,11.739c9.917-0.722,15.559-8.102,12.94-16.174c8.683-6.135,23.155-3.805,22.574,7.559
			c-0.576,10.488-11.062,20.54-28.102,21.765c-20.091,1.444-41.006-7.425-60.401-15.471c-9.114,13.418-23.895,18.918-36.611,19.343
			c-17.676,0.6-31.37-5.073-31.279-18.594c0.081-11.853,11.442-18.724,25.175-19.288c7.248-0.289,17.157,0.711,28.578,3.748
			c0.794-4.776,1.084-10.495,0.748-17.271c-4.11,6.423-9.465,9.001-14.043,9.222C60.799,103.303,53.235,93.42,52.058,79.3
			C51.112,69,51.427,59.739,53.565,44c3.457-3.392,21.137-5.258,25.827-3.527C73.333,72.413,74.122,87.682,83.149,87.216z
			 M87.762,120.302c-14.579-6.063-25.661-2.871-25.704,3.511c-0.03,4.578,5.424,6.441,10.892,6.223
			C79.054,129.793,84.286,126.774,87.762,120.302z"/>
		<path fill="#FFFFFF" d="M191.933,70.267c-0.043,6.834,1.598,8.175,6.053,7.133c1.897,1.561,1.713,10.041-0.716,12.749
			c-2.302,2.075-5.875,4.512-12.997,5.135c-7.248,0.632-13.069-2.962-14.176-8.795c-3.729,6.621-7.955,11.42-18.126,12.217
			c-13.225,1.027-26.011-6.907-25.87-28.429c0.145-22.006,12.689-35.409,27.438-36.811c9.029-0.848,14.852,2.524,17.997,7.414
			c0.696-2.828,1.393-5.657,2.089-8.488c1.786-1.155,18.695-2.388,20.084-1.175C192.43,52.217,191.974,63.805,191.933,70.267z
			 M161.444,48.992c-6.358,0.59-10.346,7.709-10.422,19.399c-0.068,10.338,3.465,14.235,9.189,13.756
			c3.432-0.289,6.371-2.517,8.42-5.043c0.479-8.607,0.959-17.216,1.438-25.829C168.048,49.61,164.748,48.687,161.444,48.992z"/>
		<path fill="#FFFFFF" d="M298.878,39.929c-3.921-2.876-14.454-5.117-19.285-4.572c-3.943,0.443-6.874,1.911-6.891,4.568
			c-0.046,7.211,32.509,3.354,32.376,24.412c-0.062,9.822-9.025,20.674-30.897,22.863c-8.775,0.883-24.524-0.451-30.35-3.515
			c-1.247-3.517,1.37-15.586,6.344-18.502c5.816,4.552,16.598,7.856,22.829,7.21c4.578-0.475,7-1.867,7.017-4.656
			c0.048-7.477-33.017-3.491-32.875-25.876c0.08-12.446,12.832-19.552,29.364-21.474c10.043-1.162,23.005-1.017,28.456,1.16
			C306.331,26.744,302.323,37.644,298.878,39.929z"/>
		<path fill="#FFFFFF" d="M353.766,61.715c6.358-0.645,14.383-3.379,20.13-8.087c3.169,1.233,4.774,8.85,2.837,14.081
			c-7.16,6.77-19.897,11.209-31.717,11.861c-18.816,1.071-32.869-7.448-32.73-29.517c0.132-20.91,14.964-35.534,37.852-38.146
			c21.872-2.474,30.465,5.564,30.389,17.75c-0.113,18.426-22.015,25.217-42.832,21.385C337.39,59.283,343.594,62.743,353.766,61.715
			z M355.735,31.502c0.025-4.125-1.859-7.528-6.31-7.037c-8.775,0.972-11.626,9.76-12.059,18.143
			C345.118,42.671,355.682,40.015,355.735,31.502z"/>
	</g>
	<g>
		<path fill="#FFFFFF" d="M272.555,142.126c-0.045,6.957,1.599,8.333,6.053,7.315c1.897,1.608,1.714,10.241-0.716,12.976
			c-2.301,2.093-5.875,4.54-12.997,5.126c-7.247,0.594-13.072-3.09-14.176-9.035c-3.729,6.729-7.955,11.596-18.126,12.397
			c-13.226,1.032-26.012-6.996-25.87-28.92c0.145-22.416,12.689-36.121,27.438-37.527c9.028-0.851,14.852,2.612,17.997,7.606
			c0.697-2.877,1.393-5.755,2.089-8.634c1.787-1.176,18.695-2.313,20.084-1.058C273.053,123.746,272.596,135.544,272.555,142.126z
			 M242.064,120.288c-6.356,0.583-10.342,7.833-10.42,19.739c-0.068,10.528,3.466,14.501,9.189,14.025
			c3.432-0.286,6.371-2.545,8.42-5.109c0.48-8.764,0.959-17.53,1.438-26.3C248.669,120.942,245.371,119.987,242.064,120.288z"/>
		<path fill="#FFFFFF" d="M312.999,97.576c0.189,3.682,0.378,7.364,0.567,11.047c2.954-5.126,9.231-12.639,18.384-13.529
			c8.775-0.852,15.487,2.883,15.426,12.663c-0.089,14.167-10.937,21.523-24.631,16.364c0.038-6.013-0.572-9.794-3.371-9.532
			c-2.67,0.25-4.72,2.612-6.137,5.679c-0.469,14.038-0.938,28.072-1.407,42.101c-3.446,2.456-21.759,4.101-24.162,2.146
			c0.755-18.964,3.052-40.508,1.672-63.227C292.654,99.443,308.685,96.847,312.999,97.576z"/>
		<path fill="#FFFFFF" d="M436.044,115.503c0.296-6.839-1.464-10.255-6.931-9.848c-3.688,0.274-8.153,2.969-10.332,6.137
			c0.037,0.825,0.075,1.649,0.112,2.474c-0.505,13.229-1.011,26.454-1.516,39.675c-4.847,2.926-20.868,3.916-23.653,2.182
			c0.374-12.496,0.747-24.995,1.121-37.497c0.175-7.682-2.1-9.834-7.059-9.414c-3.054,0.258-7.131,2.035-10.208,6.312
			c-0.255,13.871-0.511,27.739-0.766,41.605c-3.312,1.671-20.739,3.672-24.034,1.883c1.053-26.083,3.311-41.62,1.544-63.995
			c2.305-2.926,19.984-4.964,23.025-3.677c0.315,3.811,0.631,7.623,0.946,11.436c4.75-7.794,12.153-13.134,21.691-13.959
			c7.757-0.673,15.875,2.181,16.96,11.369c5.005-7.966,12.667-13.823,22.585-14.573c15.642-1.182,21.679,9.256,20.433,26.201
			c-0.375,5.953-0.751,11.904-1.126,17.854c-0.154,4.357,0.847,7.063,5.561,5.349c1.385,2.032,1.468,9.154,0.178,12.387
			c-2.82,3.975-8.301,6.108-14.403,6.456c-10.299,0.586-15.613-3.788-15.032-15.619
			C435.442,130.662,435.743,123.084,436.044,115.503z"/>
		<path fill="#FFFFFF" d="M542.209,113.47c-0.13,21.904-12.303,37.556-36.337,38.339c-25.557,0.763-34.864-15.952-34.767-31.821
			c0.154-25.337,17.773-37.862,36.338-38.778C532.239,80.009,542.322,94.573,542.209,113.47z M505.836,136.775
			c9.156-0.335,11.244-9.189,11.326-22.805c0.07-11.738-1.547-17.821-9.43-17.466c-7.376,0.34-11.356,7.057-11.45,22.461
			C496.218,129.724,497.953,137.073,505.836,136.775z M530.223,55.748c-4.996,6.277-9.991,12.554-14.987,18.83
			c-3.82,1.235-11.432-1.175-11.677-3.019c1.692-6.473,3.383-12.95,5.075-19.432C512.719,49.222,527.332,50.368,530.223,55.748z"/>
	</g>
</g>
</svg>
