
<?xml-stylesheet href="../../../stylesheets/main.css" type="text/css"?>
<svg xmlns="http://www.w3.org/2000/svg" width="100%" height="100%" viewBox="0 0 587.6 187" class="logo">

    <style>
      .logo__path {
        fill : #22007f
      }
    </style>

    <path class="logo__path" d="M557.7 159.2c7.2 0 11.9 6.3 10.8 14 -1.7 12-18 18.5-24 9.8C537.3 175.2 546.7 158.5 557.7 159.2zM563.8 54.5c0.2-2.9 3-5.1 5.7-5.2 4.7-0.1 9.5-0.2 14.2-0.2 2.7 0 4.5 2.1 3.8 5 -5.5 28.6-11 57-16.5 85.4 -0.7 3.4-2.7 5-5.7 5 -3.3 0-6.6 0-9.9 0 -2.7 0-4.5-2.1-3.8-5C555.6 111.3 559.7 83 563.8 54.5z"/>
    <path class="logo__path" d="M29.9 27.8c-7.2 0-11.9-6.3-10.8-14C20.8 1.8 37.1-4.7 43.2 4 50.3 11.8 41 28.5 29.9 27.8zM23.9 132.5c-0.2 2.9-3 5.1-5.7 5.2 -4.7 0.1-9.5 0.2-14.2 0.2 -2.7 0-4.5-2.1-3.8-5 5.5-28.6 11-57 16.5-85.4 0.7-3.4 2.7-5 5.7-5 3.3 0 6.6 0 9.9 0 2.7 0 4.5 2.1 3.8 5C32 75.7 28 104 23.9 132.5z"/>
    <path class="logo__path" d="M83.1 87.2c4.6-0.2 7.3-3.3 7.8-12 0.4-9 0.9-23.1 1.3-36 3.3-1.7 22.3-2.4 25.5 0.4 -2.7 18.2-3.8 36-3.9 54.2 -0.1 8.5-1.5 16-3.8 22.1 17.4 5.1 35.3 12.7 48.1 11.7 9.9-0.7 15.6-8.1 12.9-16.2 8.7-6.1 23.2-3.8 22.6 7.6 -0.6 10.5-11.1 20.5-28.1 21.8 -20.1 1.4-41-7.4-60.4-15.5 -9.1 13.4-23.9 18.9-36.6 19.3 -17.7 0.6-31.4-5.1-31.3-18.6 0.1-11.9 11.4-18.7 25.2-19.3 7.2-0.3 17.2 0.7 28.6 3.7 0.8-4.8 1.1-10.5 0.7-17.3 -4.1 6.4-9.5 9-14 9.2C60.8 103.3 53.2 93.4 52.1 79.3 51.1 69 51.4 59.7 53.6 44c3.5-3.4 21.1-5.3 25.8-3.5C73.3 72.4 74.1 87.7 83.1 87.2zM87.8 120.3c-14.6-6.1-25.7-2.9-25.7 3.5 0 4.6 5.4 6.4 10.9 6.2C79.1 129.8 84.3 126.8 87.8 120.3z"/>
    <path class="logo__path" d="M191.9 70.3c0 6.8 1.6 8.2 6.1 7.1 1.9 1.6 1.7 10-0.7 12.7 -2.3 2.1-5.9 4.5-13 5.1 -7.2 0.6-13.1-3-14.2-8.8 -3.7 6.6-8 11.4-18.1 12.2 -13.2 1-26-6.9-25.9-28.4 0.1-22 12.7-35.4 27.4-36.8 9-0.8 14.9 2.5 18 7.4 0.7-2.8 1.4-5.7 2.1-8.5 1.8-1.2 18.7-2.4 20.1-1.2C192.4 52.2 192 63.8 191.9 70.3zM161.4 49c-6.4 0.6-10.3 7.7-10.4 19.4 -0.1 10.3 3.5 14.2 9.2 13.8 3.4-0.3 6.4-2.5 8.4-5 0.5-8.6 1-17.2 1.4-25.8C168 49.6 164.7 48.7 161.4 49z" />
    <path class="logo__path" d="M298.9 39.9c-3.9-2.9-14.5-5.1-19.3-4.6 -3.9 0.4-6.9 1.9-6.9 4.6 0 7.2 32.5 3.4 32.4 24.4 -0.1 9.8-9 20.7-30.9 22.9 -8.8 0.9-24.5-0.5-30.3-3.5 -1.2-3.5 1.4-15.6 6.3-18.5 5.8 4.6 16.6 7.9 22.8 7.2 4.6-0.5 7-1.9 7-4.7 0-7.5-33-3.5-32.9-25.9 0.1-12.4 12.8-19.6 29.4-21.5 10-1.2 23-1 28.5 1.2C306.3 26.7 302.3 37.6 298.9 39.9z" />
    <path class="logo__path" d="M353.8 61.7c6.4-0.6 14.4-3.4 20.1-8.1 3.2 1.2 4.8 8.9 2.8 14.1 -7.2 6.8-19.9 11.2-31.7 11.9 -18.8 1.1-32.9-7.4-32.7-29.5 0.1-20.9 15-35.5 37.9-38.1 21.9-2.5 30.5 5.6 30.4 17.8 -0.1 18.4-22 25.2-42.8 21.4C337.4 59.3 343.6 62.7 353.8 61.7zM355.7 31.5c0-4.1-1.9-7.5-6.3-7 -8.8 1-11.6 9.8-12.1 18.1C345.1 42.7 355.7 40 355.7 31.5z"/>
    <path class="logo__path" d="M272.6 142.1c0 7 1.6 8.3 6.1 7.3 1.9 1.6 1.7 10.2-0.7 13 -2.3 2.1-5.9 4.5-13 5.1 -7.2 0.6-13.1-3.1-14.2-9 -3.7 6.7-8 11.6-18.1 12.4 -13.2 1-26-7-25.9-28.9 0.1-22.4 12.7-36.1 27.4-37.5 9-0.9 14.9 2.6 18 7.6 0.7-2.9 1.4-5.8 2.1-8.6 1.8-1.2 18.7-2.3 20.1-1.1C273.1 123.7 272.6 135.5 272.6 142.1zM242.1 120.3c-6.4 0.6-10.3 7.8-10.4 19.7 -0.1 10.5 3.5 14.5 9.2 14 3.4-0.3 6.4-2.5 8.4-5.1 0.5-8.8 1-17.5 1.4-26.3C248.7 120.9 245.4 120 242.1 120.3z"/>
    <path class="logo__path" d="M313 97.6c0.2 3.7 0.4 7.4 0.6 11 3-5.1 9.2-12.6 18.4-13.5 8.8-0.9 15.5 2.9 15.4 12.7 -0.1 14.2-10.9 21.5-24.6 16.4 0-6-0.6-9.8-3.4-9.5 -2.7 0.3-4.7 2.6-6.1 5.7 -0.5 14-0.9 28.1-1.4 42.1 -3.4 2.5-21.8 4.1-24.2 2.1 0.8-19 3.1-40.5 1.7-63.2C292.7 99.4 308.7 96.8 313 97.6z"/>
    <path class="logo__path" d="M436 115.5c0.3-6.8-1.5-10.3-6.9-9.8 -3.7 0.3-8.2 3-10.3 6.1 0 0.8 0.1 1.6 0.1 2.5 -0.5 13.2-1 26.5-1.5 39.7 -4.8 2.9-20.9 3.9-23.7 2.2 0.4-12.5 0.7-25 1.1-37.5 0.2-7.7-2.1-9.8-7.1-9.4 -3.1 0.3-7.1 2-10.2 6.3 -0.3 13.9-0.5 27.7-0.8 41.6 -3.3 1.7-20.7 3.7-24 1.9 1.1-26.1 3.3-41.6 1.5-64 2.3-2.9 20-5 23-3.7 0.3 3.8 0.6 7.6 0.9 11.4 4.8-7.8 12.2-13.1 21.7-14 7.8-0.7 15.9 2.2 17 11.4 5-8 12.7-13.8 22.6-14.6 15.6-1.2 21.7 9.3 20.4 26.2 -0.4 6-0.8 11.9-1.1 17.9 -0.2 4.4 0.8 7.1 5.6 5.3 1.4 2 1.5 9.2 0.2 12.4 -2.8 4-8.3 6.1-14.4 6.5 -10.3 0.6-15.6-3.8-15-15.6C435.4 130.7 435.7 123.1 436 115.5z"/>
    <path class="logo__path" d="M542.2 113.5c-0.1 21.9-12.3 37.6-36.3 38.3 -25.6 0.8-34.9-16-34.8-31.8 0.2-25.3 17.8-37.9 36.3-38.8C532.2 80 542.3 94.6 542.2 113.5zM505.8 136.8c9.2-0.3 11.2-9.2 11.3-22.8 0.1-11.7-1.5-17.8-9.4-17.5 -7.4 0.3-11.4 7.1-11.4 22.5C496.2 129.7 498 137.1 505.8 136.8zM530.2 55.7c-5 6.3-10 12.6-15 18.8 -3.8 1.2-11.4-1.2-11.7-3 1.7-6.5 3.4-12.9 5.1-19.4C512.7 49.2 527.3 50.4 530.2 55.7z"/>
</svg>
